<svg xmlns="http://www.w3.org/2000/svg" viewBox="0 0 24 24" role="img" aria-label="TikTok">
  <path fill="#25f4ee" d="M19.59 6.69a4.83 4.83 0 0 1-3.77-4.25V2h-3.45v13.67a2.89 2.89 0 0 1-5.2 1.74 2.89 2.89 0 0 1 2.31-4.64c.31 0 .61.05.88.14V9.4a6.33 6.33 0 0 0-1-.05A6.34 6.34 0 1 0 15.86 15.7v-7a8.16 8.16 0 0 0 4.77 1.52V6.75c-.35 0-.7-.02-1.04-.06Z" transform="translate(-.65 .45)"/>
  <path fill="#fe2c55" d="M19.59 6.69a4.83 4.83 0 0 1-3.77-4.25V2h-3.45v13.67a2.89 2.89 0 0 1-5.2 1.74 2.89 2.89 0 0 1 2.31-4.64c.31 0 .61.05.88.14V9.4a6.33 6.33 0 0 0-1-.05A6.34 6.34 0 1 0 15.86 15.7v-7a8.16 8.16 0 0 0 4.77 1.52V6.75c-.35 0-.7-.02-1.04-.06Z" transform="translate(.65 -.35)"/>
  <path fill="#fff" d="M19.59 6.69a4.83 4.83 0 0 1-3.77-4.25V2h-3.45v13.67a2.89 2.89 0 0 1-5.2 1.74 2.89 2.89 0 0 1 2.31-4.64c.31 0 .61.05.88.14V9.4a6.33 6.33 0 0 0-1-.05A6.34 6.34 0 1 0 15.86 15.7v-7a8.16 8.16 0 0 0 4.77 1.52V6.75c-.35 0-.7-.02-1.04-.06Z"/>
</svg>
