<svg xmlns="http://www.w3.org/2000/svg" viewBox="0 0 32 32" role="img" aria-label="WhatsApp">
  <path fill="#fff" d="M16 0C7.164 0 0 7.163 0 16c0 2.82.74 5.574 2.147 8.005L0 32l8.207-2.123A15.93 15.93 0 0 0 16 32c8.836 0 16-7.163 16-16S24.836 0 16 0Zm0 29.333c-2.6 0-5.147-.69-7.36-2l-.527-.312-4.867 1.26 1.298-4.74-.343-.547A13.284 13.284 0 0 1 2.667 16C2.667 8.64 8.64 2.667 16 2.667S29.333 8.64 29.333 16 23.36 29.333 16 29.333Zm7.387-10.08c-.403-.202-2.383-1.176-2.75-1.31-.367-.134-.634-.202-.902.202-.268.403-1.036 1.31-1.27 1.578-.233.268-.467.302-.87.1-.403-.202-1.7-.626-3.24-1.996-1.197-1.067-2.005-2.385-2.24-2.788-.233-.403-.025-.62.177-.822.182-.181.403-.467.605-.7.202-.233.268-.403.403-.67.134-.268.067-.503-.034-.705-.1-.202-.902-2.176-1.236-2.98-.326-.784-.657-.677-.902-.69l-.768-.013c-.268 0-.705.1-1.075.503-.37.403-1.41 1.378-1.41 3.36 0 1.983 1.443 3.9 1.645 4.167.202.268 2.84 4.34 6.884 6.085.962.415 1.71.663 2.295.848.964.306 1.842.263 2.536.16.774-.116 2.383-.974 2.718-1.916.335-.943.335-1.75.233-1.916-.1-.167-.367-.268-.77-.47Z"/>
</svg>
